<?xml version="1.0" encoding="UTF-8"?>
<svg id="Ebene_1" data-name="Ebene 1" xmlns="http://www.w3.org/2000/svg" viewBox="0 0 198.57 72.14">
  <defs>
    <style>
      .cls-1 {
        fill: #5a7537;
      }

      .cls-2 {
        fill: #3f3f3f;
      }
    </style>
  </defs>
  <path class="cls-2" d="M16.87,19.35h8.28v10.08h-8.28v9.63c0,2.84,1.34,4.4,4.25,4.4,1.34,0,2.84-.3,4.03-.75v10.45c-1.94.75-4.55,1.27-7.46,1.27-9.33,0-13.66-5.3-13.66-13.58v-11.42H0v-10.08h4.03v-5.9l12.84-8.28"/>
  <path class="cls-2" d="M28.68,7.91c0-3.96,3.36-7.24,7.54-7.24s7.54,3.28,7.54,7.24-3.36,7.24-7.54,7.24-7.54-3.28-7.54-7.24ZM29.72,20l12.84-1.34v35.23h-12.84V20Z"/>
  <path class="cls-1" d="M82.77,51.99c-2.52-2.59-3.78-6.5-3.78-11.28v-22.72s-13.39.19-13.39.19c-11.54.08-19.59,7.59-19.59,17.65s8.13,17.58,18.89,17.58c2.25,0,4.34-.31,6.27-.93.46.77.7,1.7.7,2.79,0,3.64-2.71,6.35-7.82,6.35-4.8,0-8.21-2.32-11.46-6.12l-6.74,8.05c5.19,5.96,11.61,8.59,18.58,8.59,11.69,0,18.81-7.2,18.81-16.34,0-1.36-.18-2.63-.48-3.82ZM64.91,42.88c-4.03,0-7.05-3.02-7.05-7.05s3.02-7.12,7.05-7.12,6.97,3.02,6.97,7.12-3.02,7.05-6.97,7.05Z"/>
  <path class="cls-1" d="M117.31,17.87v36.54h-13.01v-3.17c-2.56,2.71-6.12,4.18-10.45,4.18-8.59,0-12.85-5.88-12.85-14.71l-.05-22.69,13.37,1.5v19.48c0,3.17,1.86,5.19,4.72,5.19s4.96-2.17,4.96-5.42v-19.51l13.32-1.39Z"/>
  <path class="cls-2" d="M159.73,36.49c0,10.6-8.13,18.51-19.48,18.51s-19.4-7.76-19.4-18.66V1.42l12.76-1.42v21.42c2.39-1.87,5.37-2.99,8.96-2.99,9.55,0,17.17,7.84,17.17,18.06ZM147.79,36.64c0-4.4-3.21-7.61-7.46-7.61s-7.46,3.28-7.46,7.61,3.21,7.54,7.46,7.54,7.46-3.21,7.46-7.54Z"/>
  <path class="cls-2" d="M193.87,40.6l3.43,8.96c-4.1,3.13-9.93,5.45-15.9,5.45-11.12,0-19.48-7.99-19.48-18.36s7.99-18.43,18.81-18.43c9.33,0,16.94,6.19,17.84,17.09l-23.81,7.61c1.57,1.72,3.81,2.76,6.79,2.76,3.43,0,7.61-1.34,12.31-5.08ZM172.75,35.23l14.11-4.63c-1.27-1.94-3.43-3.13-5.97-3.13-4.4,0-7.54,3.21-8.14,7.76Z"/>
</svg>