<?xml version="1.0" encoding="UTF-8"?>
<svg id="Ebene_1" data-name="Ebene 1" xmlns="http://www.w3.org/2000/svg" viewBox="0 0 283.46 141.73">
  <defs>
    <style>
      .cls-1 {
        fill: #5a7537;
      }

      .cls-2 {
        fill: #3f3f3f;
      }
    </style>
  </defs>
  <path class="cls-2" d="M101.27,55.64h8.25v10.04h-8.25v9.59c0,2.82,1.34,4.39,4.24,4.39,1.34,0,2.82-.3,4.01-.74v10.41c-1.93.74-4.54,1.26-7.43,1.26-9.29,0-13.6-5.28-13.6-13.53v-11.38h-4.01v-10.04h4.01v-5.87l12.79-8.25"/>
  <path class="cls-2" d="M113.04,44.24c0-3.94,3.35-7.21,7.51-7.21s7.51,3.27,7.51,7.21-3.35,7.21-7.51,7.21-7.51-3.27-7.51-7.21ZM114.08,56.28l12.79-1.34v35.09h-12.79v-33.75Z"/>
  <path class="cls-1" d="M166.93,88.15c-2.51-2.58-3.76-6.47-3.76-11.24v-22.64s-13.34.19-13.34.19c-11.49.08-19.51,7.56-19.51,17.58s8.1,17.51,18.82,17.51c2.24,0,4.32-.31,6.25-.93.46.77.69,1.7.69,2.78,0,3.62-2.7,6.32-7.79,6.32-4.78,0-8.18-2.31-11.41-6.09l-6.71,8.02c5.17,5.94,11.57,8.56,18.51,8.56,11.65,0,18.74-7.17,18.74-16.27,0-1.36-.17-2.62-.48-3.8ZM149.13,79.07c-4.01,0-7.02-3.01-7.02-7.02s3.01-7.1,7.02-7.1,6.94,3.01,6.94,7.1-3.01,7.02-6.94,7.02Z"/>
  <path class="cls-1" d="M201.32,54.16v36.4h-12.96v-3.16c-2.55,2.7-6.09,4.17-10.41,4.17-8.56,0-12.8-5.86-12.8-14.65l-.05-22.6,13.32,1.5v19.41c0,3.16,1.85,5.17,4.7,5.17s4.94-2.16,4.94-5.4v-19.44l13.27-1.39Z"/>
  <path class="cls-2" d="M243.58,72.71c0,10.56-8.1,18.44-19.4,18.44s-19.33-7.73-19.33-18.59v-34.79l12.71-1.41v21.34c2.38-1.86,5.35-2.97,8.92-2.97,9.52,0,17.1,7.81,17.1,17.99ZM231.69,72.86c0-4.39-3.2-7.58-7.43-7.58s-7.43,3.27-7.43,7.58,3.2,7.51,7.43,7.51,7.43-3.2,7.43-7.51Z"/>
  <path class="cls-2" d="M277.59,76.8l3.42,8.92c-4.09,3.12-9.89,5.43-15.83,5.43-11.08,0-19.4-7.96-19.4-18.29s7.96-18.36,18.74-18.36c9.29,0,16.88,6.17,17.77,17.02l-23.72,7.58c1.56,1.71,3.79,2.75,6.77,2.75,3.42,0,7.58-1.34,12.27-5.06ZM256.55,71.45l14.05-4.61c-1.26-1.93-3.42-3.12-5.95-3.12-4.39,0-7.51,3.2-8.1,7.73Z"/>
  <path class="cls-1" d="M66.94,78.41c-1.84.54-3.43,1.72-4.45,3.34-1,1.59-1.24,3.46-1.55,5.27-.29,1.68-.68,3.4-2.1,4.49-.1.08-.21.14-.32.21.27-.42.52-.85.74-1.31,1.45-3.07.88-4.65-.26-5.19-.56-.26-1.15-.23-1.78.22.52-1.52.82-3.22.82-5.01,0-2.51-.57-4.83-1.55-6.75,1.62-1.18,2.61-2.76,2.61-4.5,0-.83-.23-1.62-.64-2.35.02-.08.04-.15.07-.23,1.24-2.07,2.26-5.78,1.36-6.68-1.06-1.06-6.49.27-8.09,1.74-.2-.04-.36-.06-.45-.08-1.5-.28-3.26-.16-4.9.13-.03-.03-.05-.06-.08-.08-.69-.69-2.16-1.43-3.64-1.9.11-.33.22-.65.36-.98,1.01-2.28,2.48-3.44,1.75-6.27-.33-1.27-2.77-2.4-3.56-3.34-1.6-1.9-1.53-3.49-3.2-5.32-.48-.52-1.39-1.32-2.14-1.24-.63.07-1.13.49-1.51.96-1.12-.7-2.4-1.11-3.77-1.17-2.43-.1-4.67.95-6.32,2.73-.19-.13-.46-.41-.59-.5-2.12-1.49-3.13.78-3.96,2.34-.66,1.23-1.03,3.01-1.67,4.24-.87,1.68-2.85,3.63-2.63,5.56.15,1.3.98,2.04,1.76,2.97.81.96,1.64,1.91,2.26,3.01.33.59.49,1.19,1.07,1.63,1.17.9,2.66-1,3.03-2,.29-.78.31-1.58.29-2.41,0-.16-.11-.45-.02-.61.47.58,1,1.09,1.58,1.52-.03.09-.06.18-.09.27-2.26,2.58-3.72,6.59-3.87,11.09-.1,3.13.28,5.68,1.03,7.7-1.43-1.48-2.82-1.66-4.16-1.02-2.09.99-3.26,3.59-.98,8.4,1.03,2.18,2.32,4,3.62,5.26,1.37,1.7,1.73,3.24,3.52,3.77,1.43.2,2.93.28,4.32.32.08,0,.16,0,.23,0,.96.05,2.04.06,3.24.03,2.77-.07,5.12-.63,7.01-1.54.01,0,.02.01.03.02,2.8,1.6,7.5,1.39,10.65,1.16,1.45-.11,2.68-.24,3.86-.72,1.98-.24,3.97-.58,5.7-1.63,1.75-1.06,2.87-2.68,3.4-4.63.48-1.78.51-3.67,1.17-5.4.59-1.55,1.03-2.68,2.82-3.47,1.44-.63,2.69-2.37,0-2.07ZM36.03,59.8c.5-.52.95-1.11,1.34-1.76.06.12.09.29.1.36.19.97.37,1.73.84,2.45-.01.45.03.98.11,1.53-.7-1.03-1.5-1.9-2.39-2.59ZM41.15,79.24c-.28.2-1.3.62-1.57.9.79-1.91,1.23-4.66,1.28-7.41.29.28,1.41,1.14,1.76,1.38-.79,1.6-1.33,3.11-1.47,5.13Z"/>
  <path class="cls-1" d="M38.13,108.53C17.53,108.53.77,91.77.77,71.17s16.76-37.36,37.36-37.36,37.36,16.76,37.36,37.36-16.76,37.36-37.36,37.36ZM38.13,34.81C18.08,34.81,1.77,51.12,1.77,71.17s16.31,36.36,36.36,36.36,36.36-16.31,36.36-36.36-16.31-36.36-36.36-36.36Z"/>
</svg>